<?xml version="1.0" encoding="UTF-8"?>
<svg id="Layer_2" data-name="Layer 2" xmlns="http://www.w3.org/2000/svg" viewBox="0 0 95.59 71.92">
  <defs>
    <style>
      .cls-1 {
        fill: #fff;
        stroke-width: 0px;
      }
    </style>
  </defs>
  <g id="Layer_1-2" data-name="Layer 1">
    <path class="cls-1" d="M86.23,50.75c5.9-3.02,8.86-7.92,8.86-14.83,0-11.02-7.34-17.28-20.31-17.28h-20.27V0h-11.45l-15.91,39.75L11.31,0H0v53.28h11.31v-14.91c0-5.83-.07-10.3-.72-14.26l11.23,29.16h10.66l11.3-29.16c-.58,3.96-.58,6.48-.58,18v11.16h10.98v18.64h11.67v-18.65h9l7.99,18.65h12.75l-9.36-21.17ZM74.7,43.05h-8.86v-14.04h8.93c5.18,0,7.99,2.45,7.99,6.91s-2.95,7.13-8.06,7.13Z"/>
  </g>
</svg>